<?xml version="1.0" encoding="UTF-8" standalone="no"?><!-- Generator: Gravit.io --><svg xmlns="http://www.w3.org/2000/svg" xmlns:xlink="http://www.w3.org/1999/xlink" style="isolation:isolate" viewBox="0 0 48 48" width="48pt" height="48pt"><defs><clipPath id="_clipPath_Z3Ozq8tcptULwoHPOWUL2V180nBBO3zV"><rect width="48" height="48"/></clipPath></defs><g clip-path="url(#_clipPath_Z3Ozq8tcptULwoHPOWUL2V180nBBO3zV)"><g><path d=" M 11.126 37.905 L 10.813 39.75 L 10.813 39.75 Q 9.841 39.718 9.049 39.397 L 9.049 39.397 L 9.049 39.397 Q 8.257 39.076 7.629 38.531 L 7.629 38.531 L 7.629 38.531 Q 7.002 37.985 6.546 37.263 L 6.546 37.263 L 6.546 37.263 Q 6.09 36.541 5.784 35.714 L 5.784 35.714 L 5.784 35.714 Q 5.477 34.888 5.328 34.013 L 5.328 34.013 L 5.328 34.013 Q 5.178 33.139 5.178 32.288 L 5.178 32.288 L 5.178 29.576 L 5.178 29.576 Q 5.178 27.266 4.155 26.223 L 4.155 26.223 L 4.155 26.223 Q 3.131 25.179 1.024 25.163 L 1.024 25.163 L 1.024 22.837 L 1.024 22.837 Q 3.131 22.837 4.155 21.802 L 4.155 21.802 L 4.155 21.802 Q 5.178 20.767 5.178 18.44 L 5.178 18.44 L 5.178 15.712 L 5.178 15.712 Q 5.178 14.861 5.313 13.987 L 5.313 13.987 L 5.313 13.987 Q 5.447 13.112 5.731 12.286 L 5.731 12.286 L 5.731 12.286 Q 6.015 11.459 6.456 10.737 L 6.456 10.737 L 6.456 10.737 Q 6.897 10.015 7.525 9.469 L 7.525 9.469 L 7.525 9.469 Q 8.152 8.924 8.967 8.603 L 8.967 8.603 L 8.967 8.603 Q 9.781 8.282 10.813 8.25 L 10.813 8.25 L 11.126 10.095 L 11.126 10.095 Q 10.05 10.127 9.415 10.641 L 9.415 10.641 L 9.415 10.641 Q 8.78 11.154 8.459 11.949 L 8.459 11.949 L 8.459 11.949 Q 8.137 12.743 8.048 13.738 L 8.048 13.738 L 8.048 13.738 Q 7.958 14.733 7.958 15.712 L 7.958 15.712 L 7.958 18.44 L 7.958 18.44 Q 7.943 20.365 7.121 21.818 L 7.121 21.818 L 7.121 21.818 Q 6.299 23.27 4.566 24.024 L 4.566 24.024 L 4.566 24.024 Q 6.299 24.762 7.121 26.214 L 7.121 26.214 L 7.121 26.214 Q 7.943 27.667 7.958 29.576 L 7.958 29.576 L 7.958 32.288 L 7.958 32.288 Q 7.958 33.283 8.108 34.27 L 8.108 34.27 L 8.108 34.27 Q 8.257 35.257 8.623 36.051 L 8.623 36.051 L 8.623 36.051 Q 8.989 36.846 9.595 37.359 L 9.595 37.359 L 9.595 37.359 Q 10.2 37.873 11.126 37.905 L 11.126 37.905 Z " fill="rgb(249,83,198)"/><path d=" M 27.823 29.087 L 27.823 29.087 L 27.823 29.087 Q 27.823 28.557 27.629 28.132 L 27.629 28.132 L 27.629 28.132 Q 27.435 27.707 26.972 27.354 L 26.972 27.354 L 26.972 27.354 Q 26.508 27.001 25.746 26.704 L 25.746 26.704 L 25.746 26.704 Q 24.984 26.407 23.848 26.166 L 23.848 26.166 L 23.848 26.166 Q 22.458 25.861 21.315 25.428 L 21.315 25.428 L 21.315 25.428 Q 20.172 24.995 19.357 24.393 L 19.357 24.393 L 19.357 24.393 Q 18.543 23.791 18.094 22.981 L 18.094 22.981 L 18.094 22.981 Q 17.646 22.171 17.646 21.095 L 17.646 21.095 L 17.646 21.095 Q 17.646 20.036 18.109 19.114 L 18.109 19.114 L 18.109 19.114 Q 18.573 18.191 19.41 17.501 L 19.41 17.501 L 19.41 17.501 Q 20.246 16.811 21.405 16.41 L 21.405 16.41 L 21.405 16.41 Q 22.563 16.009 23.953 16.009 L 23.953 16.009 L 23.953 16.009 Q 25.447 16.009 26.643 16.426 L 26.643 16.426 L 26.643 16.426 Q 27.838 16.843 28.675 17.581 L 28.675 17.581 L 28.675 17.581 Q 29.512 18.319 29.968 19.306 L 29.968 19.306 L 29.968 19.306 Q 30.424 20.293 30.424 21.432 L 30.424 21.432 L 27.659 21.432 L 27.659 21.432 Q 27.659 20.871 27.39 20.333 L 27.39 20.333 L 27.39 20.333 Q 27.121 19.796 26.643 19.378 L 26.643 19.378 L 26.643 19.378 Q 26.165 18.961 25.485 18.704 L 25.485 18.704 L 25.485 18.704 Q 24.805 18.448 23.953 18.448 L 23.953 18.448 L 23.953 18.448 Q 23.071 18.448 22.406 18.656 L 22.406 18.656 L 22.406 18.656 Q 21.741 18.865 21.3 19.218 L 21.3 19.218 L 21.3 19.218 Q 20.859 19.571 20.635 20.036 L 20.635 20.036 L 20.635 20.036 Q 20.411 20.502 20.411 20.999 L 20.411 20.999 L 20.411 20.999 Q 20.411 21.513 20.59 21.914 L 20.59 21.914 L 20.59 21.914 Q 20.77 22.315 21.21 22.636 L 21.21 22.636 L 21.21 22.636 Q 21.651 22.957 22.391 23.214 L 22.391 23.214 L 22.391 23.214 Q 23.131 23.47 24.267 23.711 L 24.267 23.711 L 24.267 23.711 Q 25.761 24.048 26.942 24.489 L 26.942 24.489 L 26.942 24.489 Q 28.122 24.931 28.929 25.549 L 28.929 25.549 L 28.929 25.549 Q 29.736 26.166 30.162 26.985 L 30.162 26.985 L 30.162 26.985 Q 30.588 27.803 30.588 28.878 L 30.588 28.878 L 30.588 28.878 Q 30.588 30.034 30.103 30.98 L 30.103 30.98 L 30.103 30.98 Q 29.617 31.927 28.75 32.601 L 28.75 32.601 L 28.75 32.601 Q 27.883 33.275 26.673 33.644 L 26.673 33.644 L 26.673 33.644 Q 25.462 34.013 24.027 34.013 L 24.027 34.013 L 24.027 34.013 Q 22.384 34.013 21.098 33.54 L 21.098 33.54 L 21.098 33.54 Q 19.813 33.067 18.924 32.288 L 18.924 32.288 L 18.924 32.288 Q 18.035 31.51 17.564 30.483 L 17.564 30.483 L 17.564 30.483 Q 17.093 29.456 17.093 28.349 L 17.093 28.349 L 19.858 28.349 L 19.858 28.349 Q 19.918 29.263 20.314 29.889 L 20.314 29.889 L 20.314 29.889 Q 20.71 30.515 21.3 30.9 L 21.3 30.9 L 21.3 30.9 Q 21.89 31.285 22.608 31.446 L 22.608 31.446 L 22.608 31.446 Q 23.325 31.606 24.027 31.606 L 24.027 31.606 L 24.027 31.606 Q 25.776 31.606 26.792 30.916 L 26.792 30.916 L 26.792 30.916 Q 27.809 30.226 27.823 29.087 Z " fill="rgb(219,59,160)"/><path d=" M 37.187 39.75 L 36.874 37.905 L 36.874 37.905 Q 37.785 37.873 38.398 37.359 L 38.398 37.359 L 38.398 37.359 Q 39.011 36.846 39.377 36.051 L 39.377 36.051 L 39.377 36.051 Q 39.743 35.257 39.9 34.27 L 39.9 34.27 L 39.9 34.27 Q 40.057 33.283 40.057 32.288 L 40.057 32.288 L 40.057 29.576 L 40.057 29.576 Q 40.057 27.667 40.879 26.214 L 40.879 26.214 L 40.879 26.214 Q 41.701 24.762 43.434 24.024 L 43.434 24.024 L 43.434 24.024 Q 41.701 23.27 40.879 21.818 L 40.879 21.818 L 40.879 21.818 Q 40.057 20.365 40.057 18.44 L 40.057 18.44 L 40.057 15.712 L 40.057 15.712 Q 40.057 14.733 39.96 13.738 L 39.96 13.738 L 39.96 13.738 Q 39.863 12.743 39.541 11.949 L 39.541 11.949 L 39.541 11.949 Q 39.22 11.154 38.592 10.641 L 38.592 10.641 L 38.592 10.641 Q 37.965 10.127 36.889 10.095 L 36.889 10.095 L 37.187 8.25 L 37.187 8.25 Q 38.219 8.282 39.033 8.603 L 39.033 8.603 L 39.033 8.603 Q 39.848 8.924 40.475 9.469 L 40.475 9.469 L 40.475 9.469 Q 41.103 10.015 41.544 10.737 L 41.544 10.737 L 41.544 10.737 Q 41.985 11.459 42.269 12.286 L 42.269 12.286 L 42.269 12.286 Q 42.553 13.112 42.687 13.987 L 42.687 13.987 L 42.687 13.987 Q 42.822 14.861 42.822 15.712 L 42.822 15.712 L 42.822 18.44 L 42.822 18.44 Q 42.822 20.767 43.853 21.802 L 43.853 21.802 L 43.853 21.802 Q 44.884 22.837 46.976 22.837 L 46.976 22.837 L 46.976 25.163 L 46.976 25.163 Q 44.884 25.179 43.853 26.223 L 43.853 26.223 L 43.853 26.223 Q 42.822 27.266 42.822 29.576 L 42.822 29.576 L 42.822 32.288 L 42.822 32.288 Q 42.822 33.572 42.493 34.88 L 42.493 34.88 L 42.493 34.88 Q 42.164 36.188 41.469 37.263 L 41.469 37.263 L 41.469 37.263 Q 40.774 38.338 39.713 39.028 L 39.713 39.028 L 39.713 39.028 Q 38.652 39.718 37.187 39.75 L 37.187 39.75 Z " fill="rgb(185,29,115)"/></g></g></svg>